<?xml version="1.0" encoding="UTF-8"?>
<svg id="Ebene_1" data-name="Ebene 1" xmlns="http://www.w3.org/2000/svg" version="1.1" viewBox="0 0 202 32">
  <defs>
    <style>
      .cls-1 {
        fill: #5a5a5a;
        stroke-width: 0px;
      }
    </style>
  </defs>
  <path class="cls-1" d="M41,16.9h3c2.3,0,4.3.8,4.3,3.4s-2,3.5-4.1,3.5h-1.6v4.6h-1.6v-11.5ZM42.6,22.3h1.6c1.1.1,2.2-.7,2.3-1.8,0,0,0-.1,0-.2,0-1.4-1.5-2-2.5-2h-1.4v4ZM50.2,20h1.4v1.3h0c.4-.9,1.2-1.4,2.2-1.5.3,0,.7,0,1,.1v1.4c-.3-.1-.6-.2-.9-.1-1.4,0-2.3,1.3-2.3,3.4v3.8h-1.5v-8.4ZM58.6,18.1h-1.7v-1.7h1.7v1.7ZM57,20h1.5v8.4h-1.5v-8.4ZM65.2,28.3h-1.8l-3-8.4h1.7l2.3,6.8h0l2.3-6.8h1.5l-3,8.4ZM70.3,20.5c.8-.5,1.8-.8,2.8-.8,2.4,0,3.4,1.2,3.4,3.5v3.5c0,.5,0,1.1,0,1.6h-1.4v-1.1h0c-.6.8-1.6,1.3-2.6,1.3-1.8,0-3.1-.8-3.1-2.6s2.3-2.8,3.9-2.8,1,0,1.6,0c0-1.4-.5-2.2-2.1-2.2-.9,0-1.7.3-2.4.9v-1.3ZM74.9,24.3c-.3,0-.7,0-1,0-.8,0-2.9.1-2.9,1.6,0,.8.8,1.4,1.6,1.4,1.2.1,2.2-.7,2.3-1.9,0-.1,0-.2,0-.3v-.7ZM83.6,21.2h-2.2v4.6c0,.7.4,1.4,1.1,1.5,0,0,0,0,.1,0,.4,0,.7,0,1.1-.3v1.3c-.4.1-.9.2-1.3.2-1.6,0-2.6-.8-2.6-2.4v-4.9h-1.9v-1.3h1.9v-1.9l1.5-.5v2.4h2.2v1.3ZM89.4,28.3h-1.8l-3-8.4h1.7l2.3,6.8h0l2.3-6.8h1.5l-3,8.4ZM100.5,28c-.8.4-1.7.6-2.6.5-3,0-4.3-1.8-4.3-4.5s1.6-4.2,3.9-4.2,3.7,2,3.7,4.7h-6c0,1.5,1.2,2.8,2.7,2.8,0,0,0,0,0,0,.9,0,1.8-.3,2.6-.8v1.5ZM99.5,23.3c.1-1.2-.7-2.2-1.9-2.3,0,0-.1,0-.2,0-1.3,0-2.3,1.1-2.3,2.3h4.3ZM103.4,20h1.4v1.3h0c.4-.9,1.2-1.4,2.2-1.5.3,0,.7,0,1,.1v1.4c-.3-.1-.6-.2-.9-.1-1.4,0-2.3,1.3-2.3,3.4v3.8h-1.5v-8.4ZM109.3,26.7c.6.4,1.2.6,1.9.6.7,0,1.6-.3,1.6-1.2,0-1.5-3.6-1.4-3.6-3.8s1.3-2.6,3-2.6c.7,0,1.3.1,1.9.3v1.3c-.6-.2-1.2-.4-1.8-.4-.8,0-1.5.3-1.5,1,0,1.7,3.6,1.2,3.6,3.9,0,1.5-1.2,2.6-2.6,2.6,0,0-.2,0-.3,0-.8,0-1.6-.1-2.3-.5v-1.4ZM118.3,18.1h-1.7v-1.7h1.7v1.7ZM116.7,20h1.5v8.4h-1.5v-8.4ZM126.5,21.4c-.5-.2-1.1-.4-1.7-.4-1.6,0-2.8,1.4-2.7,3,0,0,0,0,0,.1,0,1.5.8,3.1,2.8,3.1.6,0,1.2-.2,1.7-.5v1.4c-.5.3-1.2.4-1.8.3-2.3,0-4.3-1.9-4.3-4.2h0c0,0,0-.1,0-.2-.1-2.3,1.6-4.2,3.9-4.4.1,0,.3,0,.4,0,.6,0,1.3.1,1.9.3v1.3ZM128.7,16h1.5v5.2h0c.6-.9,1.6-1.4,2.7-1.4,2.2,0,3.1,1.3,3.1,3.6v5h-1.5v-4.3c0-2-.4-2.9-1.8-3-1.8,0-2.5,1.4-2.5,3.5v3.9h-1.5v-12.3ZM145.3,28c-.8.4-1.7.6-2.6.5-3,0-4.3-1.8-4.3-4.5s1.6-4.2,3.9-4.2,3.7,2,3.7,4.7h-6c0,1.5,1.2,2.8,2.7,2.8,0,0,0,0,0,0,.9,0,1.8-.3,2.6-.8v1.5ZM144.3,23.3c.1-1.2-.7-2.2-1.9-2.3,0,0-.1,0-.2,0-1.3,0-2.3,1.1-2.3,2.3h4.3ZM148.2,20h1.4v1.3h0c.4-.9,1.2-1.4,2.2-1.5.3,0,.7,0,1,.1v1.4c-.3-.1-.6-.2-.9-.1-1.4,0-2.3,1.3-2.3,3.4v3.8h-1.5v-8.4ZM162.1,28.3h-1.5v-1.3h0c-.6,1-1.6,1.6-2.7,1.5-2.2,0-3.1-1.3-3.1-3.6v-5h1.5v4.3c0,2,.4,2.9,1.8,3,1.8,0,2.5-1.4,2.5-3.5v-3.9h1.5v8.4ZM164.9,20h1.5v1.3h0c.6-1,1.6-1.6,2.7-1.5,2.2,0,3.1,1.3,3.1,3.6v5h-1.5v-4.3c0-2-.4-2.9-1.8-3-1.8,0-2.5,1.4-2.5,3.5v3.9h-1.5v-8.4ZM182.5,28c0,2.6-1.3,4-4.3,4-1,0-2-.2-3-.6l.2-1.4c.9.5,2,.8,3,.8,1.6,0,2.6-1.1,2.6-2.9v-.8h0c-.7.8-1.7,1.3-2.8,1.3-2.4,0-3.6-2-3.6-4.1s1.2-4.5,3.7-4.5c1.1-.1,2.2.4,2.8,1.4h0v-1.3h1.4v8ZM181,24.2c0-1.7-.8-3.2-2.4-3.2s-2.3,1.7-2.3,3.1.9,3,2.3,3c1.4,0,2.5-1.3,2.5-2.8,0,0,0,0,0,0h0ZM191.7,28c-.8.4-1.7.6-2.6.5-3,0-4.3-1.8-4.3-4.5s1.6-4.2,3.9-4.2,3.7,2,3.7,4.7h-6c0,1.5,1.2,2.8,2.7,2.8,0,0,0,0,0,0,.9,0,1.8-.3,2.6-.8v1.5ZM190.7,23.3c.1-1.2-.7-2.2-1.9-2.3,0,0-.1,0-.2,0-1.3,0-2.3,1.1-2.3,2.3h4.3ZM194.6,20h1.5v1.3h0c.6-1,1.6-1.6,2.7-1.5,2.2,0,3.1,1.3,3.1,3.6v5h-1.5v-4.3c0-2-.4-2.9-1.8-3-1.8,0-2.5,1.4-2.5,3.5v3.9h-1.5v-8.4ZM77.5,7.1h0c1.4-.5,2.3-1.8,2.2-3.3C79.7,1.4,77.7,0,75.4,0h-5.4v14h5c2.2,0,5-.5,5-3.8.1-1.5-1-2.9-2.5-3.1ZM73.2,2.9h1c1.1,0,2.2.1,2.2,1.4s-1.1,1.5-2.2,1.5h-.9v-2.9ZM74.2,11.5h-1v-3.2h1c1.1,0,2.4.1,2.4,1.6,0,1.4-1.2,1.6-2.4,1.6h0ZM59.4,14h4.3L68,0h-3.5l-2.9,10.8h0L58.7,0h-3.7l4.4,14ZM54,5.9h-5.8v2.7h2.2v2.5c-.4.2-.8.2-1.3.2-2.6,0-4.6-1.4-4.6-4.1s2.5-4.5,5.4-4.5c1.1,0,2.3.3,3.3.9l.3-2.9C52.2.2,50.8,0,49.5,0c-4.9,0-8.5,2-8.5,7s4.1,6.9,7.7,6.9c1.8.1,3.6,0,5.3-.5v-7.7Z"/>
  <path class="cls-1" d="M0,29h15v-15H0v15Z"/>
  <path class="cls-1" d="M0,12h17v17h12V0H0v12Z"/>
</svg>