<?xml version="1.0" encoding="UTF-8"?>
<svg id="Ebene_1" data-name="Ebene 1" xmlns="http://www.w3.org/2000/svg" version="1.1" viewBox="0 0 193.5 57">
  <defs>
    <style>
      .cls-1 {
        fill: #5b5b5b;
        stroke-width: 0px;
      }
    </style>
  </defs>
  <g>
    <path class="cls-1" d="M0,25.8c0-4.3,1.2-7.8,3.5-10.4,2.3-2.6,5.4-4,9.1-4s7.1,1.3,9.3,3.8c2.2,2.5,3.3,6.1,3.3,10.6s-1.1,8-3.4,10.6c-2.3,2.6-5.3,3.9-9.2,3.9s-7.1-1.3-9.3-3.9c-2.2-2.6-3.3-6.1-3.3-10.6ZM5.2,25.8c0,7,2.5,10.5,7.4,10.5s4.1-.9,5.4-2.8c1.3-1.9,2-4.4,2-7.7,0-6.9-2.5-10.3-7.4-10.3s-4.1.9-5.4,2.8c-1.3,1.8-2,4.4-2,7.6Z"/>
    <path class="cls-1" d="M47.5,39.8v-16.2c0-3-.4-5-1.3-6.2-.9-1.2-2.4-1.8-4.5-1.8s-2.3.3-3.5,1c-1.2.7-2.2,1.5-2.8,2.5v20.7h-4.9V11.9h3.4l1.6,3.6c1.6-2.7,4.3-4.1,8-4.1,6.1,0,9.2,3.7,9.2,11.1v17.2h-4.9Z"/>
    <path class="cls-1" d="M59.3,31.9V.5h4.9v30.5c0,1.5.4,2.7,1.3,3.5.9.9,2,1.3,3.4,1.3v4.4c-6.4,0-9.6-2.8-9.6-8.4Z"/>
    <path class="cls-1" d="M84.2,44.5c-.6,1.8-2,3.2-4,4.4-2.1,1.2-4.3,1.8-6.9,1.8v-4.4c2.1,0,3.8-.5,5.3-1.4,1.5-1,2.2-2.1,2.2-3.5s-.3-3-.8-4.5c-.5-1.5-1.2-3.3-2.1-5.5l-7.5-19.4h5l8.2,21.5,7.4-21.5h5l-11.8,32.6Z"/>
  </g>
  <g>
    <path class="cls-1" d="M117.8,39.8v-17.2c0-1.7-.5-3.1-1.6-4.1-1.1-1-2.5-1.6-4.2-1.6s-2.2.3-3.2.9c-1.1.6-1.9,1.2-2.3,2v20h-6.6V1.6l6.6-1.6v13.7c1.7-1.5,4-2.3,6.9-2.3s6.2,1,8.1,2.9,2.9,4.7,2.9,8.3v17.2h-6.5Z"/>
    <path class="cls-1" d="M146.8,37c-.6,1-1.6,1.8-3.1,2.4-1.5.6-3,.9-4.6.9-3,0-5.4-.7-7.1-2.2-1.7-1.5-2.6-3.6-2.6-6.4s1.2-5.7,3.6-7.6c2.4-1.8,5.9-2.7,10.3-2.7s1.7.1,2.7.4c0-3.3-2.1-4.9-6.2-4.9s-4.5.4-6.1,1.2l-1.4-5c2.2-1.1,4.9-1.6,8-1.6s7.4,1,9.3,2.9,3,5.6,3,11v6c0,3.7.7,6,2.2,7-.5.9-1.1,1.5-1.8,1.7-.7.2-1.4.3-2.3.3s-1.8-.3-2.5-1c-.7-.7-1.2-1.4-1.5-2.3ZM146.2,26.7c-1.1-.2-1.9-.3-2.5-.3-5.1,0-7.7,1.7-7.7,5s1.4,3.7,4.3,3.7,5.8-2,5.8-5.8v-2.6Z"/>
    <path class="cls-1" d="M161,39.8v-22.5h-3.6v-5.3h10.1v27.8h-6.6ZM164.4,1.1c1,0,1.9.4,2.7,1.1.7.7,1.1,1.6,1.1,2.7s-.4,1.9-1.1,2.7c-.7.7-1.6,1.1-2.7,1.1s-1.9-.4-2.7-1.1c-.7-.7-1.1-1.6-1.1-2.7s.4-1.9,1.1-2.7c.7-.7,1.6-1.1,2.7-1.1Z"/>
    <path class="cls-1" d="M190.7,18c-1.2-.8-2.4-1.1-3.8-1.1s-2.8.7-4,2.1c-1.2,1.4-1.8,3-1.8,5v15.9h-6.5V11.9h6.5v2.5c1.8-2,4.2-3.1,7.3-3.1s3.9.3,5.1,1l-2.8,5.6Z"/>
  </g>
  <g>
    <path class="cls-1" d="M99.7,52.5c.4.2,1.1.5,1.7.5.9,0,1.4-.5,1.4-1s-.4-.9-1.3-1.3c-1.3-.5-1.9-1.1-1.9-2s.9-2.1,2.4-2.1,1.3.2,1.7.4l-.3.9c-.3-.2-.8-.4-1.4-.4s-1.2.4-1.2,1,.4.8,1.3,1.2c1.2.5,1.8,1.1,1.8,2.1s-1,2.1-2.6,2.1-1.5-.2-2-.5l.3-1Z"/>
    <path class="cls-1" d="M108.7,45.1v1.7h1.8v1h-1.8v3.8c0,.9.2,1.4,1,1.4s.6,0,.7,0v1c-.2,0-.6.2-1.1.2s-1.1-.2-1.4-.5c-.3-.4-.5-1-.5-1.8v-3.8h-1.1v-1h1.1v-1.3l1.3-.4Z"/>
    <path class="cls-1" d="M114,46.8l1.5,4.2c.2.5.3,1,.5,1.4h0c.1-.4.3-1,.5-1.5l1.4-4.1h1.4l-1.9,5c-.9,2.4-1.5,3.6-2.4,4.4-.6.5-1.3.8-1.6.8l-.3-1.1c.3-.1.7-.3,1.1-.6.3-.3.8-.8,1.1-1.4,0-.1.1-.2.1-.3s0-.2-.1-.3l-2.6-6.5h1.4Z"/>
    <path class="cls-1" d="M121.9,43.5h1.3v10.3h-1.3v-10.3Z"/>
    <path class="cls-1" d="M128.3,44.8c0,.4-.3.8-.8.8s-.8-.3-.8-.8.3-.8.8-.8.8.3.8.8ZM126.9,53.8v-7h1.3v7h-1.3Z"/>
    <path class="cls-1" d="M131.8,48.7c0-.7,0-1.3,0-1.9h1.1v1.2h.1c.3-.7,1.2-1.3,2.3-1.3s2.5.6,2.5,3v4.2h-1.3v-4.1c0-1.1-.4-2.1-1.6-2.1s-1.5.6-1.7,1.3c0,.2,0,.4,0,.6v4.2h-1.3v-5.1Z"/>
    <path class="cls-1" d="M147.4,52.8c0,1.6-.3,2.6-1,3.2-.7.6-1.7.8-2.6.8s-1.8-.2-2.3-.6l.3-1c.5.3,1.2.6,2.1.6,1.3,0,2.3-.7,2.3-2.5v-.8h0c-.4.7-1.2,1.2-2.2,1.2-1.7,0-3-1.5-3-3.4s1.6-3.7,3.2-3.7,1.9.6,2.2,1.2h0v-1.1h1.2c0,.5,0,1.1,0,1.9v4.1ZM146.1,49.6c0-.2,0-.4,0-.6-.2-.8-.8-1.4-1.8-1.4s-2.1,1-2.1,2.7.7,2.5,2.1,2.5,1.5-.5,1.8-1.3c0-.2.1-.5.1-.7v-1.3Z"/>
    <path class="cls-1" d="M156.1,53.6c-.3.2-1.1.4-2,.4-2.1,0-3.5-1.4-3.5-3.6s1.5-3.8,3.8-3.8,1.4.2,1.8.4l-.3,1c-.3-.2-.8-.3-1.5-.3-1.6,0-2.5,1.2-2.5,2.7s1,2.6,2.4,2.6,1.2-.2,1.6-.3l.2,1Z"/>
    <path class="cls-1" d="M159.1,43.5h1.3v10.3h-1.3v-10.3Z"/>
    <path class="cls-1" d="M169.9,51.9c0,.7,0,1.4,0,1.9h-1.1v-1.2h-.1c-.3.6-1.1,1.3-2.3,1.3s-2.4-.6-2.4-3.1v-4.1h1.3v3.9c0,1.3.4,2.3,1.6,2.3s1.5-.6,1.7-1.2c0-.2.1-.4.1-.7v-4.3h1.3v5.1Z"/>
    <path class="cls-1" d="M173.6,43.5h1.3v4.4h0c.5-.8,1.3-1.3,2.4-1.3,1.8,0,3,1.5,3,3.6s-1.6,3.8-3.2,3.8-1.8-.4-2.4-1.3h0v1.2h-1.2c0-.5,0-1.2,0-1.8v-8.5ZM174.9,51c0,.2,0,.3,0,.5.2.9,1,1.5,1.9,1.5,1.4,0,2.1-1.1,2.1-2.7s-.7-2.6-2.1-2.6-1.7.6-1.9,1.6c0,.2,0,.3,0,.5v1.3Z"/>
  </g>
</svg>