<?xml version="1.0" encoding="UTF-8"?>
<svg id="Ebene_1" data-name="Ebene 1" xmlns="http://www.w3.org/2000/svg" version="1.1" viewBox="0 0 113 113">
  <defs>
    <style>
      .cls-1 {
        fill: #fff;
        stroke-width: 0px;
      }
    </style>
  </defs>
  <path class="cls-1" d="M63.3,28c.5-.3.9-.7,1.3-.9,10-6.9,20-7.6,28.9-1.9,14.3,9.1,22.5,32.3,18.3,51.9-3.8,17.9-19.9,34-35.7,35.8-7.5.9-17.8-1.1-24.5-15.4-3.8-8.1-4.3-15.4-2.7-21.8l.6-2c5.4-17.3,24.8-27.3,25.9-27.8,1.2-.6,1.4-1.8.8-2.8-.5-1.1-1.8-1.5-2.8-.9-.3.1-22.4,12-28.5,31.8-2.9,8.4-7,13.6-15.8,15.6-5.2,1.1-10.9-1-16.8-6.1C-3.9,68.9-1.8,45.7,5.5,28.6,12.8,11.2,25.5-.6,36.3,0c9.5.4,16.9,6.4,20.6,16.4,1.2,3,2,6.3,2.2,9.5-12.5,9.3-18.4,18.9-22,26.6-4.8,9.6-4.5,18.8-4.5,18.8,0,1,1.4,1.6,2.5,1.4,1-.2,1.5-.9,1.5-2.3s.1-2.5.7-6.2c.6-3.4,1.5-6.7,2.8-9.8,3-6.7,8.6-15,18.9-23.3l4.3-3.2h0Z"/>
  <path class="cls-1" d="M40,91.9c5,1.5,7.6,7.3,6,13-1.5,4.8-5.6,8.1-9.9,8.1s-1.6-.1-2.3-.3c-2.4-.7-4.3-2.5-5.4-4.8-1.2-2.5-1.4-5.3-.5-8.1,1.5-4.8,5.6-8.1,10-8.1s1.6.1,2.3.3Z"/>
</svg>