<?xml version="1.0" encoding="UTF-8"?>
<svg id="Ebene_1" data-name="Ebene 1" xmlns="http://www.w3.org/2000/svg" version="1.1" viewBox="0 0 107.9 19.7">
  <defs>
    <style>
      .cls-1 {
        fill: #5a5a5a;
        stroke-width: 0px;
      }
    </style>
  </defs>
  <path class="cls-1" d="M13.3,11.2c0,2.7-2,4.2-5.1,4.2H0V.8h8.2c3.1,0,4.5,1.6,4.5,3.7s-.9,2.5-1.9,3v.2c1.1.4,2.5,1.4,2.5,3.6h0ZM3.4,6.5h4.4c1,0,1.5-.6,1.5-1.5s-.6-1.5-1.5-1.5H3.4v3ZM9.8,11c0-.9-.6-1.7-1.7-1.7H3.4v3.3h4.7c1.2,0,1.7-.8,1.7-1.6Z"/>
  <path class="cls-1" d="M16.2,19.5v-2.5c.4,0,.8.1,1.1.1,1.1,0,2.1-.4,2.6-1.3l.2-.5h-1.1l-4.8-10.4h3.6l3.2,7.1h.2l3-7.1h3.6l-4.8,11.4c-.5,1.1-1.5,3.4-4.9,3.4s-1.4-.1-1.9-.2Z"/>
  <path class="cls-1" d="M28.4,11.9h3.3c.2.9,1.1,1.3,2.5,1.3s1.8-.2,1.8-.8-.5-.7-1.8-.9l-2.1-.3c-2-.3-3.3-1.1-3.3-3s2.2-3.4,4.9-3.4,5.1,1.5,5.4,3.4h-3.4c-.2-.6-.7-1-2-1s-1.6.2-1.6.7.6.6,1.7.8l2.2.3c2.4.4,3.4,1.6,3.4,3.2s-2.2,3.2-5.2,3.2-5.7-1.4-5.8-3.7v.2Z"/>
  <path class="cls-1" d="M43,12.1v-4.5h-2.6v-2.6h1c1.3,0,1.8-.5,1.8-1.6v-1.3h3.1v2.9h3.3v2.6h-3.3v3.9c0,.6,0,1.4,1.6,1.4s.8,0,1.2-.1v2.5c-.6.1-1.4.2-2.2.2-3,0-3.9-1.6-3.9-3.5h0Z"/>
  <path class="cls-1" d="M51.3,5h3.1l.3,1.5h.2c.9-1.2,1.7-1.7,3.6-1.7h1v3.4c-.5,0-1-.1-1.5-.1-2.3,0-3.4,1.4-3.4,3.3v4.1h-3.4V5h.1Z"/>
  <path class="cls-1" d="M60.5,10.2c0-3.3,2.8-5.4,6.6-5.4s6.6,2.1,6.6,5.4-2.7,5.4-6.6,5.4-6.6-2.1-6.6-5.4ZM70.4,10.2c0-1.4-1.1-2.5-3.2-2.5s-3.2,1.1-3.2,2.5,1.2,2.5,3.2,2.5,3.2-1.1,3.2-2.5Z"/>
  <path class="cls-1" d="M75.6,5h3.1l.3,1.2h.2c.7-.8,1.9-1.5,3.7-1.5,3.2,0,5.1,1.9,5.1,4.8v5.8h-3.4v-5c0-1.8-1.1-2.7-2.8-2.7s-2.9.9-2.9,2.7v5h-3.4V5h.1Z"/>
  <path class="cls-1" d="M89.8,2C89.8.9,90.8,0,91.8,0s1.9.9,1.9,2-.9,2-1.9,2-2-.9-2-2ZM90.1,5h3.4v10.4h-3.4V5Z"/>
  <path class="cls-1" d="M95.2,10.2c0-3.4,2.8-5.5,6.5-5.5s5.8,1.3,6.2,4.3h-3.4c-.3-.8-1.4-1.4-2.8-1.4s-3.1,1-3.1,2.6,1.2,2.4,3.1,2.4,2.4-.3,2.8-1.1h3.4c-.4,2.5-2.7,4-6.2,4s-6.5-2.1-6.5-5.3Z"/>
</svg>