<?xml version="1.0" encoding="UTF-8"?>
<svg id="Ebene_1" data-name="Ebene 1" xmlns="http://www.w3.org/2000/svg" version="1.1" viewBox="0 0 841.9 595.3">
  <defs>
    <style>
      .cls-1, .cls-2 {
        fill: #5a5959;
      }

      .cls-2 {
        stroke-width: 0px;
      }
    </style>
  </defs>
  <g>
    <path class="cls-1" d="M185.6,350.6c-14.5,14.5-32.4,25-51.9,30.4-28.9-7-57.9-22.4-72.4-49.9-12.5-24.5-13-53.4.5-77.4,9-15.5,25.4-24.4,42.9-25.5,20.5-1,40.9,10.5,50.4,29.4,9.5,18.5,7,41.9-6,57.9,8-13,9.5-29.5,3.5-43.4-5.5-12-16-20.5-28.9-23-23-3.5-42.4,17-43.4,38.4-1,31.9,25.5,64.9,58.9,60.9,26.4-3,47.9-24,54.9-49.9,6-23-2-48.9-20.9-62.9,14,7.5,24.4,20,30.9,34.4,11.5,27.4,2.5,59.4-18.5,80.3h0Z"/>
    <path class="cls-1" d="M215.5,197.9c4.5,4.5,8,9.5,11,15-4-4-9.5-7-15-8-18.5-2.5-30.4,12.5-43.4,23-5.5,4-11.5,7-18.5,7-1.5-20,17-34.4,34.4-38.9-19.5-.5-38.9,14.5-43.9,33.4-8-12.5-3.5-29.5,7.5-38.9,20.5-17,50.4-10,67.9,7.5h0Z"/>
    <path class="cls-1" d="M182.9,347.9c-14.5,14.5-32.4,25-51.9,30.4-28.9-7-57.9-22.5-72.4-49.9-12.5-24.4-13-53.4.5-77.3,9-15.5,25.4-24.5,42.9-25.5,20.5-1,40.9,10.5,50.4,29.5,9.5,18.5,7,41.9-6,57.9,8-13,9.5-29.4,3.5-43.4-5.5-12-16-20.5-28.9-22.9-23-3.5-42.4,17-43.4,38.4-1,31.9,25.5,64.9,58.9,60.9,26.4-3,47.9-24,54.9-49.9,6-23-2-48.9-21-62.9,14,7.5,24.4,19.9,31,34.4,11.5,27.4,2.5,59.4-18.5,80.3h0Z"/>
    <path class="cls-1" d="M212.9,195.2c4.5,4.5,8,9.5,11,15-4-4-9.5-7-15-8-18.4-2.5-30.4,12.5-43.4,23-5.5,4-11.5,7-18.5,7-1.5-20,17-34.4,34.4-38.9-19.5-.5-38.9,14.5-43.9,33.4-8-12.5-3.5-29.4,7.5-38.9,20.5-17,50.4-10,67.9,7.5h0Z"/>
  </g>
  <g>
    <path class="cls-2" d="M226.5,326.7v-64h10.8v64h-10.8ZM258.9,326.7l-21.6-34.1,20.8-29.9h13.1l-22.2,29.7,23.7,34.3h-13.9Z"/>
    <path class="cls-2" d="M313.9,326.7l-14.3-30.1c-3.4-7.1-6.9-15.2-8.1-19l-.3.3c.5,5.4.6,12.1.6,17.8l.4,31h-10.5v-64h12l15.5,31.3c3,5.9,5.7,13.5,6.6,16.5l.3-.3c-.3-3.2-.9-12.4-.9-18.2l-.2-29.2h10.1v64h-11.2Z"/>
    <path class="cls-2" d="M375.4,326.7l-5.2-16.8h-20.7l-5.2,16.8h-11l21-64.1h12.3l20.4,64.1h-11.7ZM360.2,273.7h0s-6.6,23-8.1,27.3h15.7c-.6-1.4-7.1-24.8-7.6-27.3Z"/>
    <path class="cls-2" d="M417,327.7c-8.5,0-15.3-3.2-20.3-9.3-4.8-5.8-7.3-13.6-7.3-22.9s1.4-14.1,4.3-19.4c4.8-9.2,13.6-14.7,23.6-14.7s12.1,1.9,15.9,5l-4.9,7c-3.4-2.5-6.9-3.6-10.9-3.6s-10,2.8-12.8,7.7c-2.2,3.9-3.3,9.3-3.3,16.8s.8,12.3,2.5,15.9c2.8,6.1,8,9.1,14.2,9.1s7.9-1.2,11.5-4.1l5,6.8c-5,3.8-10.6,5.6-17.5,5.6Z"/>
    <path class="cls-2" d="M444.3,326.7v-64h10.8v64h-10.8ZM476.8,326.7l-21.6-34.1,20.8-29.9h13.1l-22.2,29.7,23.7,34.3h-13.9Z"/>
    <path class="cls-2" d="M553,271.4h-21.9v17.4h17.9v8.6h-17.9v29.3h-10.6v-64h33.9l-1.3,8.7Z"/>
    <path class="cls-2" d="M595.4,326.7l-5.6-9.9c-4.4-7.9-7.4-12.3-10.9-15.8-1.2-1.2-2.1-1.9-4.2-1.9v27.7h-10.5v-64h19.5c14.3,0,20.8,8.3,20.8,18.3s-6.3,17.6-15.9,17.6c2.3,1.2,6.6,7.4,9.9,12.8l9.4,15.4h-12.7ZM580.6,271.3h-5.8v20.3h5.5c5.6,0,8.5-.7,10.5-2.7s2.9-4.4,2.9-7.8c0-6.5-3.5-9.8-13-9.8Z"/>
    <path class="cls-2" d="M619.7,326.7v-64h10.9v64h-10.9Z"/>
    <path class="cls-2" d="M662.5,327.9c-7.3,0-14.7-1.9-21-5.7l4.1-8.1c5.7,3.3,10.8,5.3,17.3,5.3s12.6-3.8,12.6-10.2-3-7.7-9.5-9.5l-6.8-1.9c-5.8-1.7-10-4.1-12.4-7.7-1.8-2.6-2.7-5.6-2.7-9.3,0-11.3,8.9-19,21.7-19s14.6,2.1,20.3,6.1l-4.8,7.5c-5.9-3.5-10-4.9-15.1-4.9s-10.5,3.4-10.5,8.7,2.2,6,8.5,7.9l7.6,2.2c9.3,2.7,15.7,8.6,15.7,18.2s-8.6,20.5-25,20.5Z"/>
    <path class="cls-2" d="M723.7,327.7c-8.5,0-15.3-3.2-20.3-9.3-4.8-5.8-7.3-13.6-7.3-22.9s1.4-14.1,4.3-19.4c4.8-9.2,13.6-14.7,23.6-14.7s12.1,1.9,15.9,5l-4.9,7c-3.4-2.5-6.9-3.6-10.9-3.6s-10,2.8-12.8,7.7c-2.2,3.9-3.3,9.3-3.3,16.8s.8,12.3,2.5,15.9c2.8,6.1,8.1,9.1,14.2,9.1s7.9-1.2,11.5-4.1l5,6.8c-5,3.8-10.6,5.6-17.5,5.6Z"/>
    <path class="cls-2" d="M783.4,326.7v-29.6h-21.8v29.6h-10.5v-64h10.5v25.7h21.8v-25.7h10.7v64h-10.7Z"/>
  </g>
</svg>